<?xml version="1.0" encoding="utf-8"?>
<!-- Generator: Adobe Illustrator 16.0.0, SVG Export Plug-In . SVG Version: 6.00 Build 0)  -->
<!DOCTYPE svg PUBLIC "-//W3C//DTD SVG 1.0//EN" "http://www.w3.org/TR/2001/REC-SVG-20010904/DTD/svg10.dtd">
<svg version="1.0" id="Layer_1" xmlns="http://www.w3.org/2000/svg" xmlns:xlink="http://www.w3.org/1999/xlink" x="0px" y="0px"
	 width="60px" height="60px" viewBox="0 0 60 60" enable-background="new 0 0 60 60" xml:space="preserve">
<path fill="#FFFFFF" d="M31.85,0h-8.8v7.5l8.798-1.498L31.85,0z M46.76,54.727c-1.607-0.401-3.201-2.037-3.562-3.654l-1.443-6.499
	c3.147-3.264,5.097-7.707,5.097-12.62c-0.002-8.99-6.491-16.43-15.002-17.873v-3.984h-11.8V24.6c0,1.654-1.342,3-3,3l0.002,3.295
	l14.798,0.002v-5.318c-1.635-0.633-2.8-2.21-2.8-4.068c0.002-2.415,1.958-4.371,4.371-4.373c2.413,0,4.371,1.961,4.371,4.374
	c0,0.694-0.177,1.342-0.465,1.925c1.261,1.546,2.023,3.515,2.024,5.662c-0.002,4.963-4.039,9-9.002,9H15.151l-0.002,2.801h12.2
	c1.658,0,3.002,1.345,3,3v2.774c-1.672,3.24-4.614,5.718-8.174,6.768L11,55.5V60h38.85v-4.5L46.76,54.727z M35.896,48.794
	c-1.571,0-2.846-1.274-2.846-2.847c0-1.571,1.274-2.846,2.846-2.846s2.846,1.274,2.846,2.846
	C38.742,47.52,37.468,48.794,35.896,48.794z"/>
</svg>
