<?xml version="1.0" encoding="utf-8"?>
<!-- Generator: Adobe Illustrator 16.0.0, SVG Export Plug-In . SVG Version: 6.00 Build 0)  -->
<!DOCTYPE svg PUBLIC "-//W3C//DTD SVG 1.0//EN" "http://www.w3.org/TR/2001/REC-SVG-20010904/DTD/svg10.dtd">
<svg version="1.0" id="Layer_1" xmlns="http://www.w3.org/2000/svg" xmlns:xlink="http://www.w3.org/1999/xlink" x="0px" y="0px"
	 width="66px" height="60px" viewBox="0 0 66 60" enable-background="new 0 0 66 60" xml:space="preserve">
<path fill="#FFFFFF" d="M51,1.098l-36,3v23.9h36V1.098z M0,17.598v6c0,1.656,1.303,2.675,2.91,2.273l0.347-0.088l1.122-10.092
	L2.91,15.324C1.303,14.923,0,15.941,0,17.598z M63.09,15.324l-1.469,0.367l1.122,10.092l0.347,0.088
	c1.607,0.401,2.711-0.617,2.711-2.273v-6C65.801,15.941,64.697,14.923,63.09,15.324z M54.537,28.146
	c-0.297,1.63-1.881,2.951-3.537,2.951H15c-1.656,0-3.24-1.321-3.537-2.951L9.272,16H6v38.145C14.565,56.65,23.625,58,33,58
	c9.375,0,18.435-1.35,27-3.855V16h-3.272L54.537,28.146z M54,49c0,1.656-1.344,3-3,3H15c-1.656,0-3-1.344-3-3v-9.079
	c6.645-2.022,13.693-3.12,21-3.12s14.355,1.098,21,3.12V49z"/>
</svg>
