<?xml version="1.0" encoding="utf-8"?>
<!-- Generator: Adobe Illustrator 16.0.0, SVG Export Plug-In . SVG Version: 6.00 Build 0)  -->
<!DOCTYPE svg PUBLIC "-//W3C//DTD SVG 1.0//EN" "http://www.w3.org/TR/2001/REC-SVG-20010904/DTD/svg10.dtd">
<svg version="1.0" id="Layer_1" xmlns="http://www.w3.org/2000/svg" xmlns:xlink="http://www.w3.org/1999/xlink" x="0px" y="0px"
	 width="60px" height="60px" viewBox="0 0 60 60" enable-background="new 0 0 60 60" xml:space="preserve">
<path fill="#FFFFFF" d="M8,11h20.9V8H8V11z M8,17h20.9v-3H8V17z M8,23h20.9v-3H8V23z M8,29h20.9v-3H8V29z M34.9,8H32v21h2.9V8z
	 M40.9,8H38v21h2.9V8z M46.9,8H44v21h2.9V8z M50,8v21h2.9V8H50z M32,53h20.9v-3H32V53z M32,47h20.9v-3H32V47z M32,41h20.9v-3H32V41z
	 M32,35h20.9v-3H32V35z M26,53h2.9V32H26V53z M20,53h2.9V32H20V53z M14,53h2.9V32H14V53z M8,53h2.9V32H8V53z"/>
</svg>
