<?xml version="1.0" encoding="utf-8"?>
<!-- Generator: Adobe Illustrator 16.0.0, SVG Export Plug-In . SVG Version: 6.00 Build 0)  -->
<!DOCTYPE svg PUBLIC "-//W3C//DTD SVG 1.0//EN" "http://www.w3.org/TR/2001/REC-SVG-20010904/DTD/svg10.dtd">
<svg version="1.0" id="Layer_1" xmlns="http://www.w3.org/2000/svg" xmlns:xlink="http://www.w3.org/1999/xlink" x="0px" y="0px"
	 width="60px" height="60px" viewBox="0 0 60 60" enable-background="new 0 0 60 60" xml:space="preserve">
<path fill="#FFFFFF" d="M56.85,33c0-5.764-3.619-10.671-8.703-12.607c0.481-1.205,0.754-2.516,0.754-3.893
	c0-2.939-1.211-5.594-3.158-7.5H38.85c0-4.971-4.029-9-9-9c-3.925,0-7.252,2.516-8.484,6.019C21.243,6.015,21.124,6,21,6
	C14.372,6,9,11.373,9,18c0,2.188,0.595,4.233,1.619,6H6.308c-2.144,2.389-3.258,5.537-3.258,9c0,3.378,1.25,6.459,3.3,8.826
	l21.281,4.521l-0.259,2.654H22.35v1.5l4.782,0.956l-0.282,2.879c0,1.658-1.046,3.499-2.585,4.114l-0.215,0.087V60h11.899v-1.462
	l-0.215-0.087c-1.539-0.615-2.885-2.456-2.885-4.114l-0.781-7.988l21.481-4.522C55.6,39.459,56.85,36.378,56.85,33z"/>
</svg>
