<?xml version="1.0" encoding="utf-8"?>
<!-- Generator: Adobe Illustrator 16.0.0, SVG Export Plug-In . SVG Version: 6.00 Build 0)  -->
<!DOCTYPE svg PUBLIC "-//W3C//DTD SVG 1.0//EN" "http://www.w3.org/TR/2001/REC-SVG-20010904/DTD/svg10.dtd">
<svg version="1.0" id="Layer_1" xmlns="http://www.w3.org/2000/svg" xmlns:xlink="http://www.w3.org/1999/xlink" x="0px" y="0px"
	 width="60px" height="60px" viewBox="0 0 60 60" enable-background="new 0 0 60 60" xml:space="preserve">
<path fill="#FFFFFF" d="M3.203,58H57V22H3.203V58z M48.203,27.851c1.737,0,3.149,1.412,3.149,3.149s-1.412,3.149-3.149,3.149
	S45.054,32.737,45.054,31S46.466,27.851,48.203,27.851z M48.203,36.851c1.737,0,3.149,1.412,3.149,3.149s-1.412,3.149-3.149,3.149
	S45.054,41.737,45.054,40S46.466,36.851,48.203,36.851z M39.203,27.851c1.737,0,3.149,1.412,3.149,3.149s-1.412,3.149-3.149,3.149
	S36.054,32.737,36.054,31S37.466,27.851,39.203,27.851z M39.203,36.851c1.737,0,3.149,1.412,3.149,3.149s-1.412,3.149-3.149,3.149
	S36.054,41.737,36.054,40S37.466,36.851,39.203,36.851z M39.203,45.851c1.737,0,3.149,1.412,3.149,3.149s-1.412,3.149-3.149,3.149
	S36.054,50.737,36.054,49S37.466,45.851,39.203,45.851z M30.203,27.851c1.737,0,3.149,1.412,3.149,3.149s-1.412,3.149-3.149,3.149
	S27.054,32.737,27.054,31S28.466,27.851,30.203,27.851z M30.203,36.851c1.737,0,3.149,1.412,3.149,3.149s-1.412,3.149-3.149,3.149
	S27.054,41.737,27.054,40S28.466,36.851,30.203,36.851z M30.203,45.851c1.737,0,3.149,1.412,3.149,3.149s-1.412,3.149-3.149,3.149
	S27.054,50.737,27.054,49S28.466,45.851,30.203,45.851z M21.203,27.851c1.737,0,3.149,1.412,3.149,3.149s-1.412,3.149-3.149,3.149
	S18.054,32.737,18.054,31S19.466,27.851,21.203,27.851z M21.203,36.851c1.737,0,3.149,1.412,3.149,3.149s-1.412,3.149-3.149,3.149
	S18.054,41.737,18.054,40S19.466,36.851,21.203,36.851z M21.203,45.851c1.737,0,3.149,1.412,3.149,3.149s-1.412,3.149-3.149,3.149
	S18.054,50.737,18.054,49S19.466,45.851,21.203,45.851z M12.203,36.851c1.737,0,3.149,1.412,3.149,3.149s-1.412,3.149-3.149,3.149
	S9.054,41.737,9.054,40S10.466,36.851,12.203,36.851z M12.203,45.851c1.737,0,3.149,1.412,3.149,3.149s-1.412,3.149-3.149,3.149
	S9.054,50.737,9.054,49S10.466,45.851,12.203,45.851z M53.402,7l-0.899,5h-1.6V4c0-1.656-1.344-3-3-3s-2.8,1.344-2.8,3v3H17.402
	l-0.899,5h-1.6V4c0-1.656-1.244-3-2.9-3s-3,1.344-3,3v3h-5.8v12H57V7H53.402z"/>
</svg>
