<?xml version="1.0" encoding="utf-8"?>
<!-- Generator: Adobe Illustrator 16.0.0, SVG Export Plug-In . SVG Version: 6.00 Build 0)  -->
<!DOCTYPE svg PUBLIC "-//W3C//DTD SVG 1.0//EN" "http://www.w3.org/TR/2001/REC-SVG-20010904/DTD/svg10.dtd">
<svg version="1.0" id="Layer_1" xmlns="http://www.w3.org/2000/svg" xmlns:xlink="http://www.w3.org/1999/xlink" x="0px" y="0px"
	 width="32px" height="32px" viewBox="0 0 32 32" enable-background="new 0 0 32 32" xml:space="preserve">
<path fill="#FFFFFF" d="M0,0v32h16.992V20.008h-3.971c-0.056,0-0.1-0.045-0.1-0.1v-4.83c0-0.055,0.044-0.1,0.1-0.1h3.971v-3.562
	c0-4,2.418-6.484,6.312-6.484c1.812,0,3.242,0.138,3.641,0.191c0.049,0.007,0.086,0.049,0.086,0.099v4.72c0,0.055-0.044,0.1-0.1,0.1
	l-2.458,0.001c-2.023,0-2.394,0.557-2.394,1.851v3.083h4.882c0.03,0,0.058,0.013,0.077,0.036c0.019,0.023,0.026,0.053,0.021,0.083
	l-0.922,4.83c-0.01,0.048-0.051,0.081-0.099,0.081h-3.96V32H32V0H0z"/>
</svg>
