<?xml version="1.0" encoding="utf-8"?>
<!-- Generator: Adobe Illustrator 16.0.0, SVG Export Plug-In . SVG Version: 6.00 Build 0)  -->
<!DOCTYPE svg PUBLIC "-//W3C//DTD SVG 1.0//EN" "http://www.w3.org/TR/2001/REC-SVG-20010904/DTD/svg10.dtd">
<svg version="1.0" id="Layer_1" xmlns="http://www.w3.org/2000/svg" xmlns:xlink="http://www.w3.org/1999/xlink" x="0px" y="0px"
	 width="40px" height="62px" viewBox="0 0 40 62" enable-background="new 0 0 40 62" xml:space="preserve">
<g>
	<rect x="11" y="15" fill="#FFFFFF" width="17" height="2"/>
	<rect x="11" y="19" fill="#FFFFFF" width="17" height="2"/>
	<rect x="11" y="23" fill="#FFFFFF" width="17" height="2"/>
	<path fill="#FFFFFF" d="M40.242,5.213l-6.485-5.446l-4.331,4.537c-2.794-1.382-5.988-2.17-9.394-2.17c-11.046,0-20,8.245-20,18.417
		c0,4.407,1.686,8.449,4.489,11.619c-1.268,2.228-2.47,5.194-2.197,8.104c0.747,7.99,8.091,8.623,10.592,8.623
		c0.621,0,1.262-0.014,1.916-0.028c0.688-0.015,1.391-0.03,2.104-0.03c4.378,0,6.746,1.184,7.037,2.527
		c0.224,1.029-0.887,2.003-1.53,2.296c-1.094,0.497-2.559,0.56-4.236,0.56c-3.867,0-8.35-1.146-10.556-2.955l-4.998,5.729
		c3.567,3.018,9.743,4.936,15.452,4.936c2.809,0,5.396-0.502,7.483-1.451c4.113-1.869,6.378-5.289,6.378-9.812
		c0-2.877-1.241-4.696-2.283-5.716c-2.728-2.673-6.979-2.895-11.464-2.895l-1.66,0.004c-2.617,0-4.036-0.461-4.339-1.408
		c-0.272-0.852,0.461-1.872,1.298-2.704c2.044,0.648,4.23,1.019,6.514,1.019c11.046,0,19.9-8.245,19.9-18.417
		c0-4.108-1.462-7.889-3.911-10.952L40.242,5.213z M20.032,34.167c-1.033,0-2.073-0.096-3.089-0.284
		c-2.437,0.343-5.911,1.437-8.26,4.708c-0.038,0.054-0.099,0.084-0.163,0.084c-0.016,0-0.031-0.002-0.046-0.006
		c-0.079-0.019-0.139-0.083-0.151-0.164c-0.03-0.191-0.692-4.664,1.669-7.752c-3.282-2.594-5.16-6.302-5.16-10.202
		c0-7.508,6.819-13.617,15.2-13.617c8.326,0,15.101,6.109,15.101,13.617S28.358,34.167,20.032,34.167z"/>
</g>
</svg>
