<?xml version="1.0" encoding="utf-8"?>
<!-- Generator: Adobe Illustrator 16.0.0, SVG Export Plug-In . SVG Version: 6.00 Build 0)  -->
<!DOCTYPE svg PUBLIC "-//W3C//DTD SVG 1.1//EN" "http://www.w3.org/Graphics/SVG/1.1/DTD/svg11.dtd">
<svg version="1.1" id="Layer_1" xmlns="http://www.w3.org/2000/svg" xmlns:xlink="http://www.w3.org/1999/xlink" x="0px" y="0px"
	 width="100px" height="100px" viewBox="0 0 100 100" enable-background="new 0 0 100 100" xml:space="preserve">
<path fill="#FFFFFF" d="M50,33c-9.374,0-17,7.626-17,17s7.626,17,17,17s17-7.626,17-17S59.374,33,50,33z M49,42.951
	c-1.68-0.11-3.308-0.484-4.827-1.125c1.087-3.499,2.836-6.004,4.827-6.647V42.951z M49,44.951V49h-5.976
	c0.06-1.845,0.283-3.605,0.639-5.224C45.349,44.453,47.146,44.844,49,44.951z M49,51v4.049c-1.854,0.107-3.651,0.498-5.337,1.175
	c-0.356-1.618-0.579-3.379-0.639-5.224H49z M49,57.049v7.772c-1.991-0.644-3.74-3.148-4.827-6.647
	C45.692,57.533,47.32,57.159,49,57.049z M51,57.049c1.68,0.11,3.308,0.484,4.827,1.125c-1.087,3.499-2.836,6.004-4.827,6.647V57.049
	z M51,55.049V51h5.976c-0.06,1.845-0.282,3.605-0.639,5.224C54.651,55.547,52.854,55.156,51,55.049z M51,49v-4.049
	c1.854-0.107,3.651-0.498,5.337-1.175c0.356,1.618,0.579,3.379,0.639,5.224H51z M51,42.951v-7.772
	c1.991,0.644,3.74,3.148,4.827,6.647C54.308,42.467,52.68,42.841,51,42.951z M55.098,35.911c1.898,0.688,3.615,1.747,5.069,3.092
	c-0.785,0.728-1.634,1.36-2.535,1.896C56.978,38.919,56.119,37.217,55.098,35.911z M42.368,40.899
	c-0.902-0.536-1.75-1.169-2.535-1.896c1.454-1.346,3.171-2.403,5.069-3.092C43.881,37.217,43.022,38.919,42.368,40.899z
	 M41.805,42.893c-0.445,1.869-0.714,3.926-0.779,6.107h-5.975c0.215-3.237,1.445-6.2,3.396-8.556
	C39.478,41.402,40.6,42.227,41.805,42.893z M41.026,51c0.064,2.182,0.333,4.238,0.779,6.107c-1.205,0.666-2.327,1.49-3.357,2.448
	C36.496,57.2,35.266,54.237,35.051,51H41.026z M42.368,59.101c0.654,1.98,1.513,3.683,2.534,4.988
	c-1.898-0.688-3.615-1.746-5.069-3.092C40.618,60.27,41.466,59.637,42.368,59.101z M57.632,59.101
	c0.901,0.536,1.75,1.169,2.535,1.896c-1.454,1.345-3.171,2.403-5.069,3.092C56.119,62.783,56.978,61.081,57.632,59.101z
	 M58.195,57.107c0.445-1.869,0.715-3.926,0.779-6.107h5.975c-0.215,3.237-1.445,6.2-3.396,8.556
	C60.522,58.598,59.4,57.773,58.195,57.107z M58.975,49c-0.064-2.182-0.334-4.238-0.779-6.107c1.205-0.666,2.327-1.49,3.357-2.448
	c1.951,2.355,3.182,5.318,3.396,8.556H58.975z"/>
</svg>
