<?xml version="1.0" encoding="utf-8"?>
<!-- Generator: Adobe Illustrator 16.0.0, SVG Export Plug-In . SVG Version: 6.00 Build 0)  -->
<!DOCTYPE svg PUBLIC "-//W3C//DTD SVG 1.1//EN" "http://www.w3.org/Graphics/SVG/1.1/DTD/svg11.dtd">
<svg version="1.1" id="Layer_1" xmlns="http://www.w3.org/2000/svg" xmlns:xlink="http://www.w3.org/1999/xlink" x="0px" y="0px"
	 width="100px" height="100px" viewBox="0 0 100 100" enable-background="new 0 0 100 100" xml:space="preserve">
<path fill="#FFFFFF" d="M65.736,46.607c0.194,0.078,0.405,0.156,0.629,0.238c0.088-0.261,0.162-0.564,0.192-0.908
	c-0.3-0.004-0.593-0.012-0.879-0.02C65.701,46.158,65.72,46.393,65.736,46.607L65.736,46.607z M56.156,22.682
	c1.119,0.283,2.625,0.605,3.748,0.623c-2.001-2.727-5.26-3.358-8.225-2.554C53.645,21.183,55.09,21.875,56.156,22.682L56.156,22.682
	z M61.174,23.084c0.441-0.224,0.816-0.614,1.125-1.05c-0.646-0.437-1.482-0.854-2.562-1.172c-0.1,0.122-0.184,0.226-0.253,0.309
	C60.241,21.78,60.785,22.455,61.174,23.084L61.174,23.084z M62.814,21.167c0.351-0.693,0.528-1.29,0.531-1.294l0,0
	c-0.015,0.057-0.105,0.664-0.411,1.376c0.605,0.42,1.07,0.858,1.421,1.263c0.521-0.521,1.413-1.592,1.454-2.872
	c0.057-1.725-1.272-1.857-1.274-1.858c-0.109-0.012-0.188-0.109-0.176-0.217c0.013-0.109,0.11-0.188,0.218-0.175
	c0.005,0,1.692,0.17,1.628,2.263c-0.046,1.436-1.041,2.614-1.6,3.167c0.146,0.19,0.266,0.369,0.362,0.529l2.279-1.659
	c1.283-1.846,1.195-3.756,1.195-3.764c-0.005-0.108,0.082-0.2,0.188-0.203c0.109-0.004,0.199,0.082,0.203,0.19
	c0.001,0.007,0.07,1.517-0.779,3.187l7.357-5.361l-9.888,8.863c0.253,0.714,0.279,1.345,0.216,1.951l0.121,0.045
	c2.369-1.561,5.065-2.616,5.073-2.62l0,0c-0.008,0.004-1.848,1.546-3.959,3.064c0.459,0.197,0.955,0.427,1.468,0.689
	c0.514-0.294,1.371-0.742,2.312-1.045c0.717-0.863,1.243-1.176,1.246-1.177c0.074-0.047,0.172-0.023,0.217,0.051
	c0.047,0.074,0.025,0.172-0.051,0.218c0,0.001-0.345,0.205-0.854,0.75c0.26-0.064,0.521-0.113,0.78-0.143
	c0.556-0.06,0.976,0.009,1.295,0.143c0.257-0.318,0.479-0.655,0.64-1.011c0.796-1.736-0.531-0.98-0.534-0.979
	c-0.076,0.043-0.173,0.016-0.216-0.061c-0.042-0.076-0.015-0.172,0.062-0.215c0.006-0.003,2.177-1.241,0.976,1.385
	c-0.164,0.361-0.388,0.706-0.644,1.029c0.653,0.431,0.728,1.152,0.728,1.155c0.012,0.108-0.066,0.207-0.174,0.219
	c-0.109,0.012-0.207-0.067-0.22-0.175c0-0.003-0.057-0.562-0.595-0.889c-0.857,0.961-1.975,1.709-2.667,2.122
	c1.237,0.871,2.41,1.949,3.262,3.258c1.315-1.109,2.482-1.395,2.851,0.533l0,0l0.001,0.008l0,0l0.021,0.119
	c0.093-0.144,0.187-0.281,0.279-0.416c0.25-0.357,0.486-0.6,0.707-0.754c0.039-0.107,0.057-0.17,0.058-0.172
	c0.024-0.082,0.116-0.129,0.198-0.104c0.048,0.016,0.084,0.053,0.101,0.097c0.961-0.301,1.536,1.046,1.538,1.05
	c0.035,0.08,0,0.174-0.079,0.209c-0.08,0.035-0.173,0-0.207-0.08c-0.002-0.004-0.514-1.195-1.362-0.746
	c-0.164,0.438-0.509,1.263-1.078,2.18c0.081,1.13,0.06,2.786-0.491,4.332l0.084,0.044c-0.085,0.155-0.174,0.298-0.27,0.43
	c-0.226,0.513-0.514,1.005-0.883,1.452c-1.691,2.053-3.679,2.555-4.683,2.674c0.092,0.561,0.103,1.198-0.021,1.924
	c1.137-0.016,2.313-0.039,3.457-0.082c1.905-0.068,3.705-0.183,5.032-0.361c0.882-0.119,1.373-0.287,1.61-0.451
	c-0.263,0.023-1.577-0.023-0.703-0.566c0.413-0.259,0.866-0.268,1.165-0.14c0.217,0.093,0.371,0.258,0.429,0.467
	c0.059,0.214,0.01,0.445-0.183,0.665c-0.271,0.307-0.934,0.635-2.213,0.809c-1.353,0.183-3.181,0.298-5.11,0.367
	c-1.21,0.045-2.462,0.069-3.665,0.084c-0.22,0.756-0.553,1.385-0.93,1.909c1.842,0.449,4.003,0.794,6.295,0.794
	c6.596,0,9.861-1.184,9.861-1.184s-3.935,1.997-8.816,2.195c-0.155,0.521-0.635,1.317-2.103,1.317c-1.558,0-3.702-1.062-4.799-1.667
	c0.97,1.391,1.093,3.281,1.095,3.288c0.009,0.108-0.074,0.203-0.185,0.212c-0.106,0.01-0.201-0.072-0.211-0.183
	c0-0.009-0.17-2.577-1.647-3.773l-0.324-0.062c-0.564,0.523-1.131,0.863-1.537,1.07l4.664,5.594l-0.405,0.357l-4.77-5.375
	c-0.092,0.092-0.196,0.192-0.317,0.299c-0.326,0.646-0.866,1.53-1.732,2.496c0.652,0.137,1.682,0.521,2.55,1.59
	c1.442,1.772-0.39,3.33-0.396,3.336l-0.141-0.137c0.002-0.006,1.447-1.453,0.229-2.951c-0.92-1.131-2.021-1.422-2.562-1.496
	c-0.392,0.403-0.836,0.817-1.348,1.231c0.419,0.628,0.831,1.33,1.065,1.964c0.188,0.508,0.316,1.112,0.299,1.708
	c-0.062,2.065-1.945,2.74-3.779,2.685c-0.51-0.016-1.03-0.104-1.551-0.248c0.256,1.154,0.393,2.554,0.26,4.184
	c-0.467,5.652-5.301,5.282-5.315,5.284l0,0c0.014-0.001,4.512-0.334,4.922-5.315c0.14-1.69-0.058-3.137-0.381-4.312
	c-0.822-0.283-1.637-0.688-2.394-1.138c-0.332,0.55-0.878,0.961-1.774,0.937c-0.201-0.005-0.397-0.04-0.587-0.097
	c-0.402,0.115-0.887,0.037-1.461-0.352c-0.4-0.273-0.737-0.598-1.021-0.938c-0.775,1.149-1.584,2.312-2.409,3.452
	c-0.132,2.535-0.362,4.988-0.755,6.949c-0.576,2.875-1.096,4.918-2.664,4.34l0,0c0.917,0.185,1.611-1.547,2.095-3.961
	c0.37-1.85,0.608-4.153,0.761-6.555c-1.198,1.627-2.425,3.193-3.635,4.598c-0.904,1.051-1.989,2.181-2.992,2.49l0,0
	c2.146-2.041,4.467-4.914,6.676-7.957c0.062-1.151,0.105-2.316,0.138-3.453c-2.146,2.853-4.421,5.652-6.474,7.729
	c-7.86,7.318-2.478-2.326-2.113-1.917l0,0c-0.012,0.019-3.383,6.429,1.671,1.319c2.178-2.2,4.64-5.184,6.938-8.16l0.004-0.232
	c-0.521-0.109-1.071-0.248-1.614-0.425c-0.226,0.255-0.439,0.5-0.647,0.731c-0.545,2.646-2.242,4.586-2.249,4.593
	c-0.07,0.082-0.194,0.09-0.276,0.019c-0.082-0.07-0.09-0.195-0.019-0.277c0.004-0.006,1.347-1.539,1.984-3.717
	c-0.214,0.234-0.418,0.451-0.605,0.649c-2.069,2.892-2.896,1.89-3.194,1.599c-0.07-0.082-0.062-0.207,0.02-0.277
	c0.084-0.071,0.209-0.062,0.28,0.021c0,0.002,0.493,0.62,2.61-1.612c0.321-0.34,0.688-0.735,1.086-1.179
	c0.054-0.284,0.094-0.579,0.114-0.878l-0.189-0.082c-0.715,0.475-1.712,0.785-3.102,0.672c-0.186-0.015-0.361-0.035-0.536-0.062
	c-0.382,0.554-0.918,0.952-1.531,1.187c-0.685,0.26-1.461,0.316-2.219,0.155c-0.757-0.16-1.494-0.536-2.101-1.144
	c-0.69-0.69-1.211-1.682-1.385-2.985v-0.001c-0.355-2.656,0.971-4.12,2.207-4.896c-0.23-0.561-0.354-0.97-0.392-1.104
	c-0.221-0.176-0.441-0.357-0.659-0.546l-0.115,0.03c0,0-0.017-0.061-0.037-0.16c-0.193-0.17-0.385-0.346-0.57-0.522l-0.003,0.002
	l-0.023-0.028c-1.076-1.035-1.976-2.194-2.232-3.338c-0.387-1.707,0.529-3.148,1.559-4.172l0.025-0.029l0.002,0.002
	c0.301-0.299,0.611-0.559,0.899-0.78c0.13-0.843,0.364-1.588,0.663-2.247c-0.119-0.904-0.174-1.835-0.139-2.764
	c0.016-0.445,0.055-0.893,0.114-1.334c-0.369,0.089-0.754,0.217-1.145,0.394c-0.482,0.218-0.871,0.46-1.183,0.72
	c-0.598,0.5-0.901,1.062-1.004,1.609c-0.018,0.092-0.029,0.184-0.037,0.273c0.187,0.031,0.373,0.074,0.561,0.129
	c0.902,0.268,1.764,0.817,1.929,1.479c0.099,0.395,0.063,0.721-0.065,0.963c-0.103,0.194-0.261,0.333-0.457,0.412
	c-0.181,0.072-0.392,0.092-0.614,0.051v0.002c-0.364-0.065-0.778-0.293-1.153-0.697c-0.535,0.006-2.207-0.086-2.141-1.455
	c0.016-0.353,0.193-0.596,0.479-0.752v0.002c0.225-0.121,0.515-0.18,0.834-0.184c0.011-0.111,0.022-0.226,0.045-0.339
	c0.13-0.68,0.498-1.374,1.222-1.979c0.352-0.295,0.789-0.568,1.323-0.811c0.523-0.234,1.033-0.391,1.521-0.486
	c0.311-1.573,0.951-3.082,2.062-4.377c-0.767-0.73-1.904-1.652-3.545-2.633l0,0c2.114,0.217,3.501,1.045,4.354,1.807
	c0.763-0.677,1.573-1.107,2.403-1.354c0.271-0.18,0.541-0.327,0.812-0.445c-0.636-0.924-2.086-2.513-5.209-4.157l0,0
	c3.92,0.921,5.627,2.646,6.336,3.716c0.014-0.012,0.048-0.037,0.099-0.072l0.004-0.004l0.005-0.003l0.006-0.004l0.026-0.021
	l0.002,0.002l0.055-0.039c0.178-0.209,0.387-0.445,0.629-0.697c-0.709-1.025-2.065-2.562-4.59-4.302l0,0
	c2.94,0.815,4.582,2.282,5.469,3.455c2.861-2.558,6.471-3.899,10.175-3.846c1.782,0.028,3.251,0.264,4.458,0.618
	c0.961-1.274,2.271-3.322,1.74-4.429c-0.328-0.687-0.948-1.071-1.676-1.048c-0.668,0.023-1.428,0.232-2.16,0.582
	c-0.676,0.324-1.33,0.768-1.867,1.294l0,0c-0.577,0.565-0.713,1.057-0.607,1.417c0.05,0.17,0.153,0.314,0.291,0.423
	c0.14,0.113,0.314,0.189,0.502,0.222c1.796,0.306,0.923-1.928,0.468-1.061c-0.068,0.129-0.213,0.203-0.353,0.161
	c-1.488-0.438,2.724-1.571,1.284,0.652c-0.353,0.546-0.939,0.726-1.466,0.636c-0.25-0.043-0.488-0.147-0.682-0.303
	c-0.197-0.158-0.351-0.369-0.424-0.621c-0.144-0.489,0.011-1.125,0.709-1.809l0,0c0.567-0.556,1.26-1.025,1.975-1.367
	c0.779-0.373,1.594-0.596,2.318-0.62c0.75-0.024,1.411,0.163,1.854,0.616l0,0c0.133,0.137,0.249,0.299,0.338,0.488
	c0.588,1.229-0.769,3.452-1.826,4.898C61.379,20.332,62.174,20.738,62.814,21.167L62.814,21.167z M62.449,22.139l-0.006,0.009
	c-0.333,0.479-0.674,0.953-1.105,1.213c0.08,0.143,0.151,0.281,0.217,0.415c0.435,0.182,0.885,0.428,1.293,0.678
	c0.187,0.114,0.365,0.231,0.533,0.346l0.815-0.751C63.962,23.606,63.453,22.855,62.449,22.139L62.449,22.139z M58.484,23.487
	c-0.599-0.091-1.213-0.216-1.775-0.346c0.225,0.202,0.427,0.411,0.613,0.622C57.42,23.77,58.088,23.517,58.484,23.487L58.484,23.487
	z M60.738,53.826l0.119,0.001l-0.036-0.043L60.738,53.826L60.738,53.826z M61.252,53.812c0.079-0.006,0.158-0.013,0.236-0.021
	c-0.059-0.093-0.122-0.191-0.188-0.292c-0.065,0.044-0.133,0.087-0.199,0.127C61.152,53.688,61.202,53.75,61.252,53.812
	L61.252,53.812z M61.83,53.742l0.068-0.014c-0.14-0.178-0.255-0.32-0.334-0.42l-0.009,0.006
	C61.654,53.465,61.748,53.611,61.83,53.742L61.83,53.742z M62.236,53.648c0.385-0.108,0.758-0.274,1.094-0.515
	c0.217-0.153,0.41-0.305,0.582-0.452c0.203-0.261,0.387-0.521,0.553-0.777c-0.157,0.057-0.322,0.109-0.496,0.154l-0.174,0.045
	l-0.072,0.069c-0.51,0.474-1.178,0.782-1.875,0.981C61.945,53.275,62.08,53.443,62.236,53.648L62.236,53.648z M61.893,54.516
	l-0.11,0.018l0.101,0.152l0.063-0.049L61.893,54.516L61.893,54.516z M61.425,54.574c-0.972,0.083-1.921-0.059-2.626-0.221
	c-0.72,0.062-1.424-0.002-2.065-0.123c-0.627,0.148-1.326,0.305-2.005,0.446c0.939,0.909,3.138,2.644,6.321,0.595
	c0.2-0.129,0.395-0.263,0.58-0.396C61.568,54.782,61.498,54.68,61.425,54.574L61.425,54.574z M35.989,46.251
	c0.018-0.065,0.04-0.13,0.062-0.192c0.101-0.254,0.23-0.433,0.376-0.556c-0.222-0.688-0.417-1.419-0.581-2.192
	c-0.139-0.643-0.223-1.248-0.262-1.82c-0.231,1.176-0.391,2.871,0.176,4.275C35.83,45.934,35.906,46.096,35.989,46.251
	L35.989,46.251z M36.75,46.434c-0.078,0.252-0.088,0.551-0.07,0.822c0.229,0.268,0.472,0.505,0.713,0.715
	c-0.114-0.248-0.229-0.5-0.337-0.763l-0.07,0.017c0-0.002-0.029-0.123-0.058-0.328C36.867,46.745,36.809,46.589,36.75,46.434
	L36.75,46.434z M46.694,27.842c0.052,0.074,0.126,0.134,0.232,0.166c0.461,0.137,0.868-0.136,0.868-0.136s0,0.561-0.482,0.627
	c-0.195,0.026-0.421-0.006-0.619-0.056c0.019,0.163,0.051,0.31,0.089,0.435c0.409-0.033,0.778-0.045,1.091-0.045
	c0.062-0.407,0.123-0.839,0.181-1.269c-0.359-0.183-0.743-0.359-1.144-0.519C46.789,27.331,46.723,27.597,46.694,27.842
	L46.694,27.842z M43.98,28.553c0,0-0.188-0.765-0.238-2.2h-0.031c-1.029,1.227-1.135,2.786-1.084,3.717
	c0.096-0.055,0.195-0.109,0.3-0.164c0.548-0.288,1.126-0.5,1.696-0.657c-0.285-0.601-0.475-1.486-0.227-2.725
	c-0.093,0.142-0.183,0.304-0.259,0.478C43.875,27.615,43.98,28.553,43.98,28.553L43.98,28.553z M46.882,25.58
	c0.22-0.264,0.503-0.583,0.823-0.904c-0.836-0.026-1.292,0.156-1.995,0.404c0.14,0.043,0.28,0.093,0.417,0.147
	C46.381,25.328,46.633,25.446,46.882,25.58L46.882,25.58z M48.271,25.222c-0.271,0.268-0.511,0.535-0.705,0.767
	c0.209,0.138,0.416,0.284,0.621,0.438c0.038-0.392,0.065-0.759,0.079-1.08L48.271,25.222L48.271,25.222z M60.492,24.282
	c-0.251-0.038-0.523-0.056-0.797-0.062c0.332,0.109,0.645,0.233,0.938,0.368C60.59,24.491,60.545,24.387,60.492,24.282
	L60.492,24.282z M60.137,27.361c0.063-0.426,0.064-0.941,0.045-1.406c-0.44-0.059-0.966-0.102-1.587-0.116
	c0.296,0.733,0.444,1.429,0.522,2.002C59.421,27.708,59.773,27.539,60.137,27.361L60.137,27.361z M62.949,52.264
	c-0.082,0.012-0.16,0.021-0.24,0.028c-0.074,0.072-0.148,0.146-0.227,0.219C62.645,52.438,62.802,52.355,62.949,52.264
	L62.949,52.264z M64.969,49.923c0.306-0.2,0.528-0.401,0.678-0.555c0.146-0.491,0.222-0.91,0.246-1.218l-0.119-0.027
	c-0.149,0.303-0.387,0.742-0.717,1.266C65.037,49.561,65.008,49.739,64.969,49.923L64.969,49.923z M55.633,57.479
	c-0.056,0.262-0.145,0.619-0.272,0.998c0.184,0.131,0.373,0.262,0.567,0.39c0.17-0.487,0.206-1.027,0.207-1.392
	C55.975,57.48,55.806,57.48,55.633,57.479L55.633,57.479z M55.173,58.96c-0.167,0.381-0.376,0.752-0.642,1.033
	c0.572-0.015,0.942-0.295,1.182-0.677C55.529,59.199,55.349,59.08,55.173,58.96L55.173,58.96z M51.047,58.761
	c-0.146-0.213-0.275-0.428-0.386-0.636c-0.345-0.036-0.782-0.092-1.272-0.173l-0.311,0.419c-0.02,1.107-0.051,2.243-0.1,3.373
	C49.686,60.755,50.379,59.753,51.047,58.761L51.047,58.761z M50.348,57.456c-0.049-0.116-0.09-0.228-0.125-0.328
	c-0.092,0.011-0.178,0.022-0.259,0.04l-0.157,0.214C49.999,57.411,50.181,57.436,50.348,57.456L50.348,57.456z M46.281,55.738
	c-0.195,0.187-0.379,0.34-0.539,0.46l0.059,0.028C45.986,56.074,46.145,55.908,46.281,55.738L46.281,55.738z M44.38,55.277
	c0.319-0.06,0.657-0.205,0.938-0.521c0.146-0.168,0.27-0.33,0.368-0.481c-0.768-0.352-1.459-0.774-2.059-1.213
	c-0.266,0.305-0.536,0.623-0.814,0.955C43.378,54.504,43.911,54.919,44.38,55.277L44.38,55.277z M41.801,55.251l-0.137,0.172
	c-0.331,0.416-0.643,0.763-0.936,1.054c0.604,0.27,1.303,0.465,2.104,0.529c1.008,0.081,1.779-0.09,2.365-0.387
	c-0.064-0.036-0.129-0.073-0.192-0.112l-0.005,0.019C43.605,56.177,43.008,55.951,41.801,55.251L41.801,55.251z M34.611,44.01
	c-0.064-1.162,0.117-2.289,0.299-3.083c-0.338,0.673-0.445,1.656-0.348,2.685C34.576,43.745,34.59,43.877,34.611,44.01L34.611,44.01
	z M53.256,22.918c-1.391-0.121-2.572,0.499-3.324,1.046c0.108,0.045,0.22,0.093,0.33,0.145c0.574,0.271,1.054,0.598,1.454,0.955
	c0.92-0.57,1.952-0.999,3.1-1.188C54.364,23.515,53.848,23.189,53.256,22.918L53.256,22.918z M49.383,23.392
	c0.51-0.38,1.213-0.805,2.051-1.057c-0.672-0.135-1.41-0.205-2.225-0.196C49.27,22.476,49.334,22.904,49.383,23.392L49.383,23.392z
	 M72.535,32.332c-0.254-0.006-0.6,0.054-0.968,0.311c0.284,0.479,0.511,0.996,0.665,1.558c0.297-0.353,0.601-0.693,0.903-1.009
	C72.955,32.893,72.754,32.605,72.535,32.332L72.535,32.332z M70.752,33.614c-0.462,0.901-0.686,2.179-0.783,2.907
	c0,0.14-0.001,0.28-0.008,0.426c-0.005,0.101-0.012,0.199-0.021,0.299c0.352-0.512,0.804-1.152,1.312-1.816
	C71.197,34.766,71.02,34.163,70.752,33.614L70.752,33.614z M69.622,34.398c0.167-0.558,0.387-1.108,0.675-1.549
	c-1.068-1.518-2.846-2.545-4.424-3.207c0.064,0.166,0.128,0.34,0.191,0.524C67.287,30.93,68.918,32.291,69.622,34.398L69.622,34.398
	z M71.129,31.995c0.273-0.188,0.541-0.304,0.79-0.368c-1.933-2.007-4.677-3.257-6.388-3.893c-0.035,0.156-0.069,0.313-0.103,0.473
	C67.271,28.878,69.666,30.064,71.129,31.995L71.129,31.995z M74.188,39.859c0.654-0.178,1.399-0.586,1.89-1.488l0.049,0.025
	c0.408-1.188,0.493-2.444,0.469-3.447c-0.315,0.439-0.686,0.886-1.106,1.305l-0.146,0.312l0,0
	C75.375,37.996,74.936,39.064,74.188,39.859L74.188,39.859z M75.221,40.107c-0.717,0.4-1.462,0.492-1.944,0.502
	c-0.837,0.537-1.863,0.881-2.968,1.09l-0.006,0.064c0.035,0.067,0.07,0.137,0.104,0.209c0.744,0.159,2.046,0.276,3.3-0.4
	c0.471-0.34,0.948-0.771,1.404-1.324C75.148,40.201,75.186,40.156,75.221,40.107L75.221,40.107z M68.105,44.253
	c0.506-0.188,1.047-0.603,1.352-1.485c-0.094-0.268-0.211-0.5-0.338-0.699c-0.065,0.049-0.133,0.096-0.2,0.143
	C68.789,42.966,68.467,43.666,68.105,44.253L68.105,44.253z M69.605,40.078c-0.049-0.254-0.109-0.492-0.179-0.709
	c-0.119,0.3-0.256,0.589-0.402,0.865c0.068,0.055,0.146,0.117,0.232,0.193C69.376,40.316,69.493,40.2,69.605,40.078L69.605,40.078z
	 M69.818,38.626c0.102,0.249,0.201,0.536,0.285,0.854c0.217-0.291,0.411-0.605,0.578-0.945
	C70.381,38.575,70.092,38.605,69.818,38.626L69.818,38.626z M69.664,43.775c-0.547,0.84-1.319,1.129-1.928,1.214
	c0.006,0.057,0.011,0.112,0.016,0.169c0.57,0.001,1.18,0.001,1.812-0.004l0.006-0.025C69.67,44.626,69.693,44.177,69.664,43.775
	L69.664,43.775z M72.258,42.365c-0.649,0.086-1.248,0.037-1.704-0.043c0.053,0.139,0.1,0.283,0.139,0.436
	C71.07,42.716,71.625,42.615,72.258,42.365L72.258,42.365z M62.332,55.357c0.083,0.119,0.105,0.213,0.086,0.271
	c0.055,0.162-0.012,0.172-0.18,0.039c-0.051-0.023-0.107-0.064-0.166-0.127c-0.193,0.134-0.396,0.268-0.604,0.398
	c-1.371,0.865-2.672,1.262-3.823,1.392c0.328,0.494,0.916,1.519,1.321,3.032c0.549,0.166,1.104,0.269,1.646,0.279
	c1.685,0.035,3.438-0.123,3.501-2.181c0.018-0.551-0.105-1.116-0.281-1.592c-0.223-0.603-0.614-1.272-1.015-1.876
	C62.661,55.116,62.498,55.236,62.332,55.357L62.332,55.357z M57.01,57.404c-0.092,0.011-0.201,0.022-0.324,0.033
	c0,0.436-0.047,1.117-0.281,1.73c0.639,0.391,1.316,0.741,2.009,1.004C57.949,58.779,57.334,57.839,57.01,57.404L57.01,57.404z
	 M49.22,57.206l-0.128-0.168l-0.001,0.224l0.076,0.014L49.22,57.206L49.22,57.206z M51.166,55.497
	c0.426,0.259,0.872,0.458,1.206,0.42c0.363-0.042,0.646-0.246,0.853-0.472l0.341-0.532c-0.709,0.139-1.318,0.247-1.689,0.297
	c-0.177,0.024-0.358,0.044-0.546,0.06L51.166,55.497L51.166,55.497z M44.947,51.586c0.276,0.299,0.675,0.686,1.129,1.002
	c0.377-0.316,0.771-0.796,1.037-1.515l-0.771-0.946C45.918,50.557,45.451,51.042,44.947,51.586L44.947,51.586z M47.291,53.15
	c0.452,0.089,0.909,0.021,1.326-0.315c-0.004-0.688-0.01-1.31-0.016-1.845l-0.255,0.148C48.095,52.05,47.701,52.697,47.291,53.15
	L47.291,53.15z M49.08,52.426c0.314-0.302,0.535-0.58,0.689-0.828l-0.668-0.902l-0.044,0.025L49.08,52.426L49.08,52.426z
	 M49.97,53.757c0.284,0.06,0.946,0.19,1.616,0.287c0.301-0.411,0.594-0.813,0.879-1.207c-0.397-0.165-0.838-0.383-1.282-0.667
	c-0.233,0.314-0.47,0.629-0.709,0.938C50.307,53.328,50.139,53.543,49.97,53.757L49.97,53.757z M52.143,54.114
	c0.308,0.032,0.594,0.049,0.814,0.038c0.083-0.004,0.164-0.014,0.246-0.028c0.201-0.058,0.399-0.119,0.594-0.185
	c0.215-0.092,0.412-0.203,0.576-0.31l0.074-0.119c-0.22-0.098-0.365-0.172-0.424-0.202c-0.121-0.021-0.546-0.103-1.112-0.302
	C52.662,53.368,52.406,53.736,52.143,54.114L52.143,54.114z M45.658,31.227l0.227,1.662l-0.338,0.305
	c-0.247-0.072-0.511-0.146-0.792-0.221c-0.339-0.09-0.651-0.16-0.942-0.216c0.311-0.414,0.709-0.809,1.214-1.153
	C45.238,31.46,45.447,31.335,45.658,31.227L45.658,31.227z M53.369,27.595c0.631-0.07,1.662-0.17,2.816-0.226
	c0.426-0.021,0.779-0.024,1.073-0.018c-0.164-0.455-0.393-0.958-0.696-1.465c-1.546,0.101-2.702,0.457-3.55,0.87
	C53.16,27.042,53.275,27.324,53.369,27.595L53.369,27.595z M57.365,27.667c-0.301-0.008-0.685-0.006-1.164,0.018
	c-0.654,0.032-1.268,0.077-1.789,0.123c1.25,0.074,2.27,0.303,3.092,0.35C57.465,28.005,57.422,27.841,57.365,27.667L57.365,27.667z
	 M36.42,40.732c0.117,0.264,0.026,0.563-0.201,0.723c0.035,0.543,0.115,1.117,0.245,1.725c0.149,0.698,0.323,1.357,0.521,1.984
	c0.137-0.688,0.445-1.446,1.081-2.098c-0.301-0.668-0.617-1.479-0.903-2.387C36.342,40.568,36.42,40.732,36.42,40.732L36.42,40.732z
	 M36.258,39.66c0.17-0.035,0.365-0.057,0.594-0.062c-0.03-0.115-0.061-0.229-0.089-0.348c-0.146,0.093-0.312,0.205-0.497,0.336
	L36.258,39.66L36.258,39.66z M38.281,39.713c0.373,0.061,0.789,0.146,1.254,0.26c-0.193-1.033-0.191-1.908-0.035-2.646
	c0.215-1.013,0.713-1.761,1.398-2.292c-0.052-0.151-0.107-0.336-0.157-0.54C39.628,35.417,38.32,37.062,38.281,39.713L38.281,39.713
	z M40.387,40.204c0.166,0.048,0.324,0.098,0.479,0.147c-0.059-0.763,0.062-1.726,0.628-2.805c0.14-0.266,0.299-0.501,0.473-0.71
	c-0.024-0.278-0.053-0.853,0.041-1.562c-0.08,0.039-0.155,0.078-0.231,0.123c-0.745,0.427-1.291,1.103-1.501,2.093
	C40.119,38.218,40.141,39.114,40.387,40.204L40.387,40.204z M40.987,41.628l-0.21-0.071l0.037,0.107L40.987,41.628L40.987,41.628z
	 M39.857,41.279c-0.118-0.031-0.242-0.065-0.371-0.1c-0.441-0.113-0.818-0.205-1.142-0.277c0.021,0.181,0.048,0.363,0.081,0.551
	c0.133,0.357,0.27,0.691,0.399,0.998c0.348-0.223,0.752-0.418,1.225-0.576C39.98,41.671,39.916,41.473,39.857,41.279L39.857,41.279z
	 M46.46,57.198l-0.019,0.186l0.127-0.146L46.46,57.198L46.46,57.198z M77.582,32.576c-0.053,0.064-0.108,0.137-0.164,0.216
	c-0.156,0.226-0.312,0.464-0.465,0.709c0.012,0.079,0.021,0.167,0.031,0.26C77.238,33.318,77.434,32.911,77.582,32.576
	L77.582,32.576z M76.551,34.182c-0.197,0.348-0.385,0.7-0.561,1.043c0.212-0.265,0.404-0.531,0.58-0.791L76.551,34.182
	L76.551,34.182z M75.297,35.916c0.332-0.693,0.744-1.501,1.198-2.266c-0.046-0.367-0.093-0.604-0.104-0.651v-0.001l-0.002-0.01l0,0
	c-0.254-1.342-1.12-1.121-2.149-0.246C74.79,33.684,75.171,34.739,75.297,35.916L75.297,35.916z M39.979,49.301
	c0.347-0.507,0.884-1.124,1.687-1.638c-0.662-0.536-1.459-1.279-2.187-2.218c-0.723,0.822-0.888,1.752-0.852,2.529
	C38.849,48.259,39.341,48.848,39.979,49.301L39.979,49.301z M41.895,47.984c-0.761,0.48-1.268,1.059-1.588,1.531
	c0.58,0.356,0.914,0.518,1.08,0.588l0.17-0.123l0.002,0.004c0.021-0.127,0.05-0.346,0.091-0.725
	C41.696,48.818,41.803,48.337,41.895,47.984L41.895,47.984z M49.459,25.05c-0.002,0.114-0.005,0.229-0.01,0.344
	c-0.021,0.491-0.074,1.08-0.146,1.693c0.43-0.463,0.9-0.908,1.412-1.316c-0.277-0.219-0.594-0.419-0.959-0.591
	C49.656,25.133,49.557,25.089,49.459,25.05L49.459,25.05z M49.109,28.552c-0.062,0.429-0.124,0.839-0.185,1.208
	c0.207-0.248,0.445-0.49,0.679-0.709L49.109,28.552L49.109,28.552z M48.207,23.525c-0.045-0.462-0.106-0.867-0.162-1.182
	c-0.664,0.412-1.244,0.851-1.744,1.276C46.873,23.503,47.516,23.453,48.207,23.525L48.207,23.525z M70.459,28.913
	c0.643-0.375,1.779-1.106,2.652-2.062c-0.249-0.081-0.566-0.117-0.976-0.073c-0.428,0.048-0.864,0.155-1.285,0.292
	c-0.303,0.383-0.635,0.865-0.977,1.467C70.072,28.657,70.266,28.782,70.459,28.913L70.459,28.913z M69.607,28.373
	c0.239-0.424,0.479-0.792,0.705-1.109c-0.562,0.222-1.071,0.478-1.451,0.687C69.109,28.083,69.358,28.224,69.607,28.373
	L69.607,28.373z M74.109,37.365c-0.601,0.384-1.271,0.699-2.027,0.904c-0.279,0.806-0.691,1.506-1.174,2.111
	C72.566,39.913,73.844,39.004,74.109,37.365L74.109,37.365z M68.434,38.658c-0.235-0.01-0.459-0.024-0.672-0.047
	c0.166,0.173,0.32,0.363,0.465,0.574C68.303,39.014,68.371,38.838,68.434,38.658L68.434,38.658z M67.381,38.25
	c0.342,0.053,0.725,0.088,1.151,0.1c0.135-0.461,0.222-0.947,0.246-1.459c0.109-2.279-1.03-3.869-2.208-4.893
	c0.151,0.738,0.211,1.393,0.203,1.967c0.095,0.712,0.146,1.473,0.127,2.256c-0.016,0.581-0.037,1.123-0.066,1.625
	C67.018,37.962,67.201,38.098,67.381,38.25L67.381,38.25z M69.793,38.312c0.328-0.023,0.676-0.064,1.043-0.119
	c0.248-0.598,0.406-1.269,0.433-2.017C70.609,37.079,70.07,37.891,69.793,38.312L69.793,38.312z M72.195,37.908
	c0.73-0.223,1.382-0.555,1.957-0.949c0.006-0.118,0.008-0.24,0.006-0.363c-0.029-1.113-0.324-2.111-0.795-3.006
	c-0.336,0.358-0.677,0.756-1.006,1.165c0.036,0.206,0.062,0.416,0.077,0.634C72.505,36.318,72.41,37.156,72.195,37.908
	L72.195,37.908z M66.51,35.682c-0.232,0.729-0.578,1.235-0.878,1.567c0.24,0.087,0.522,0.207,0.82,0.368
	c0.022-0.439,0.042-0.908,0.054-1.407C66.511,36.033,66.512,35.855,66.51,35.682L66.51,35.682z M64.806,35.639
	c0.044,0.084,0.087,0.168,0.13,0.254c0.033,0.064,0.063,0.129,0.095,0.194c0.147-0.315,0.381-1.056,0.119-2.272
	c-0.361-1.682-1.218-0.312-1.218-0.312C64.375,33.997,64.659,34.988,64.806,35.639L64.806,35.639z M65.604,38.083
	c0.151,1.097,0.041,2.062-0.077,2.683c0.211,0.014,0.424,0.025,0.64,0.033c0.077-0.576,0.164-1.35,0.233-2.303
	C66.121,38.316,65.848,38.182,65.604,38.083L65.604,38.083z M43.507,31.891c0.3-0.334,0.655-0.651,1.078-0.938
	c0.563-0.384,1.128-0.649,1.675-0.831c-0.24,0.031-0.486,0.072-0.738,0.125l-0.036,0.059c0,0-0.021-0.014-0.057-0.037
	c-0.648,0.142-1.323,0.357-1.95,0.688c-0.241,0.128-0.459,0.253-0.651,0.377C43.055,31.509,43.316,31.719,43.507,31.891
	L43.507,31.891z M42.191,37.913c-0.49,0.935-0.595,1.753-0.547,2.386c0.182-0.621,0.465-1.39,0.903-2.234
	c0.39-0.746,0.912-1.309,1.439-1.728C43.311,36.605,42.627,37.081,42.191,37.913L42.191,37.913z M38.453,43.864
	c-1.128,1.396-0.701,3.178-0.699,3.186l-0.07,0.017c0.1,0.233,0.201,0.461,0.308,0.685c0-0.89,0.249-1.922,1.104-2.827
	C38.867,44.59,38.65,44.238,38.453,43.864L38.453,43.864z M39.736,29.257c-0.105-0.151-0.293-0.401-0.582-0.725
	c-0.892,1.063-1.438,2.288-1.734,3.573c1.189-0.057,2.17,0.205,2.76,0.42c0.06-0.146,0.146-0.317,0.265-0.51
	C40.178,31.469,39.756,30.417,39.736,29.257L39.736,29.257z M59.143,20.911l0.146-0.171c-0.195-0.051-0.4-0.098-0.613-0.14
	C58.838,20.701,58.993,20.804,59.143,20.911L59.143,20.911z M66.773,38.766c-0.064,0.83-0.142,1.518-0.214,2.045
	c0.23,0.006,0.46,0.01,0.693,0.008c0.194-0.256,0.379-0.525,0.547-0.811C67.529,39.48,67.16,39.077,66.773,38.766L66.773,38.766z
	 M66.429,45.146l0.118-0.127l-0.001-0.008c-0.069-0.547-0.204-1.012-0.358-1.396l-0.065,0.022c-0.205,0.168-0.406,0.322-0.601,0.467
	c-0.008,0.188-0.002,0.406,0.033,0.651c0.017,0.116,0.031,0.241,0.047,0.369C65.869,45.136,66.146,45.143,66.429,45.146
	L66.429,45.146z M69.341,45.943c-0.554,0.004-1.089,0.004-1.594,0.002c-0.04,0.484-0.142,0.914-0.27,1.281
	c0.3,0.098,0.614,0.192,0.941,0.287C68.777,47.102,69.107,46.583,69.341,45.943L69.341,45.943z M67.489,43.761
	c0.175-0.292,0.335-0.61,0.458-0.946c-0.235,0.131-0.463,0.246-0.67,0.347C67.354,43.346,67.425,43.546,67.489,43.761L67.489,43.761
	z M66.915,48.384c-0.101,0.154-0.171,0.236-0.171,0.237l-0.456-0.378l-0.167-0.039l0.389,0.714c0.176-0.075,0.474-0.216,0.816-0.443
	L66.915,48.384L66.915,48.384z M42.406,50.961l0.08,0.08c0.432,0.348,1.115,0.229,1.115,0.229s-0.349-0.324-0.599-0.599
	c-0.248-0.271-0.6-0.985-0.6-0.985S42.1,50.561,42.406,50.961L42.406,50.961z M48.385,55.1c-0.299-0.056-0.606-0.123-0.926-0.205
	c-0.172,0.475-0.479,1.09-1.021,1.621c0.189,0.077,0.382,0.147,0.574,0.213C47.451,56.221,47.913,55.673,48.385,55.1L48.385,55.1z
	 M36.262,53.745c-0.01-0.108,0.07-0.204,0.18-0.214c0.108-0.01,0.203,0.07,0.214,0.179c0.002,0.017,0.437,4.886,3.155,3.003
	c-2.069-1.211-2.911-3.152-2.914-3.16c-0.069-0.158,0-0.346,0.159-0.416c0.158-0.07,0.347,0,0.416,0.159
	c0.003,0.007,0.825,1.904,2.868,2.991c0.312-0.285,0.648-0.648,1.016-1.109l0.104-0.131c-0.518-0.324-1.046-0.713-1.551-1.18
	c-1.229-1.128-2.021-2.497-2.496-3.537c-1.101,0.715-2.244,2.038-1.93,4.395l0,0c0.159,1.192,0.629,2.092,1.251,2.715
	c0.537,0.537,1.191,0.871,1.861,1.014c0.669,0.143,1.354,0.093,1.951-0.137c0.463-0.176,0.873-0.457,1.186-0.842
	c-0.557-0.127-1.057-0.314-1.508-0.539C36.798,59.746,36.264,53.764,36.262,53.745L36.262,53.745z M41.902,54.486l0.198-0.252
	c-1.174-1.049-2.461-2.41-3.599-4.227l-0.211-0.145c-0.083,0.035-0.171,0.074-0.259,0.117c0.438,0.978,1.186,2.287,2.354,3.361
	C40.883,53.798,41.4,54.175,41.902,54.486L41.902,54.486z M42.494,53.736l0.646-0.826l-1.088,0.42
	C42.201,53.471,42.348,53.605,42.494,53.736L42.494,53.736z M44.531,51.102c0.434-0.569,0.83-1.095,1.186-1.572
	c-0.424-0.26-1.174-0.579-1.729-0.045C43.381,50.07,44.116,50.779,44.531,51.102L44.531,51.102z M42.408,54.503l-0.156,0.19
	c0.344,0.193,0.676,0.358,0.986,0.496C42.973,54.979,42.695,54.75,42.408,54.503L42.408,54.503z M48.617,55.439
	c-0.41,0.496-0.812,0.973-1.197,1.42c0.396,0.121,0.795,0.221,1.179,0.303C48.607,56.572,48.613,55.996,48.617,55.439L48.617,55.439
	z M40.992,31.316c0.147-0.157,0.322-0.319,0.521-0.484c-0.1-0.717-0.245-2.593,0.657-4.301c-0.173,0.046-0.346,0.099-0.517,0.162
	C39.99,28.138,40.541,30.236,40.992,31.316L40.992,31.316z M45.246,29.098c0.252-0.053,0.5-0.096,0.744-0.131
	c-0.141-0.545-0.188-1.312,0.172-2.188c-0.363-0.116-0.736-0.215-1.115-0.287C44.756,27.76,44.969,28.591,45.246,29.098
	L45.246,29.098z M39.896,33.093c-0.562-0.198-1.486-0.432-2.603-0.348c-0.084,0.503-0.133,1.012-0.151,1.521
	c-0.018,0.438-0.013,0.879,0.012,1.315C38.088,34.281,39.215,33.49,39.896,33.093L39.896,33.093z M32.984,36.544
	c0.039,0.211,0.104,0.413,0.188,0.599c0.098,0.213,0.219,0.405,0.352,0.566c0.3,0.355,0.617,0.55,0.885,0.598l0,0
	c0.104,0.02,0.197,0.014,0.27-0.016c0.059-0.023,0.104-0.062,0.135-0.12c0.059-0.11,0.067-0.282,0.01-0.516
	c-0.105-0.427-0.776-0.813-1.492-1.025C33.213,36.598,33.098,36.568,32.984,36.544L32.984,36.544z M32.597,37.4
	c-0.128-0.281-0.22-0.594-0.263-0.926c-0.225,0.002-0.418,0.034-0.551,0.105v0.002c-0.09,0.049-0.146,0.122-0.152,0.225
	c-0.025,0.557,0.576,0.729,1.055,0.777C32.654,37.523,32.625,37.463,32.597,37.4L32.597,37.4z M52.277,25.643
	c0.121,0.145,0.233,0.292,0.336,0.441c0.852-0.427,1.979-0.799,3.438-0.947c-0.146-0.189-0.305-0.377-0.479-0.56
	c-0.104,0.01-0.209,0.021-0.316,0.033C54.156,24.744,53.163,25.119,52.277,25.643L52.277,25.643z M52.221,27.881
	c-0.061-0.168-0.135-0.339-0.219-0.512c-0.332,0.246-0.568,0.479-0.73,0.657C51.527,27.978,51.85,27.925,52.221,27.881
	L52.221,27.881z M58.201,25.015c0.471-0.016,0.908-0.023,1.311-0.025c-0.467-0.158-0.981-0.285-1.544-0.365
	C58.051,24.755,58.129,24.885,58.201,25.015L58.201,25.015z M75.902,49.663c-0.146,0.269-0.379,0.552-0.72,0.552
	c-0.335,0-0.614-0.318-0.807-0.627C74.901,49.628,75.411,49.654,75.902,49.663L75.902,49.663z M36.543,38.259
	c-0.044,0.148-0.084,0.302-0.121,0.459l0.191-0.118C36.588,38.486,36.566,38.373,36.543,38.259L36.543,38.259z M34.184,45.057
	c-0.121-0.455-0.205-0.925-0.25-1.385c-0.041-0.447-0.047-0.89-0.014-1.311c-0.191,0.531-0.257,1.108-0.117,1.723
	C33.874,44.407,34.006,44.732,34.184,45.057L34.184,45.057z M64.39,43.467c0.171-0.115,0.353-0.244,0.539-0.386
	c0.03-0.063,0.054-0.136,0.063-0.212c0.076-0.592-0.515-0.803-0.515-0.803s0.06,0.843-0.151,1.211
	C64.258,43.4,64.301,43.461,64.39,43.467L64.39,43.467z M44.971,46.328c0.664,0.044,1.299-0.122,1.299-0.122
	s-0.149,0.455-0.514,0.485C45.395,46.721,44.971,46.328,44.971,46.328L44.971,46.328z M60.215,49.941
	c0.074,0.016,0.893,0.334,1.648-0.484c0.756-0.816,0.453-1.878,0.453-1.878s-0.242,0.849-0.982,1.499
	C60.593,49.73,60.215,49.941,60.215,49.941L60.215,49.941z M60.02,48.488c0,0,0.469,0.166,0.967-0.213
	c0.499-0.377,0.212-1.015,0.212-1.015L60.02,48.488L60.02,48.488z M62.362,50.381c0,0,0.726-0.229,0.967-0.984
	c0.241-0.758,0.212-1.166,0.212-1.166s0.62,0.938,0.229,1.515C63.375,50.32,62.362,50.381,62.362,50.381L62.362,50.381z
	 M63.041,36.782c0,0,0.172,0.499,0.469,0.575c0.293,0.076,0.481,0.007,0.481,0.007s0.129,0.696-0.394,0.553
	C63.077,37.773,63.041,36.782,63.041,36.782L63.041,36.782z M62.707,35.057c0.568,0.521,1.096,1.559,1.096,1.559
	s-0.658-0.137-0.975-0.469C62.51,35.812,62.707,35.057,62.707,35.057L62.707,35.057z M63.178,32.859l-1.466-1.803
	c0,0,0.983-0.166,1.376,0.303C63.48,31.829,63.178,32.859,63.178,32.859L63.178,32.859z M60.684,32.646c0,0,0.105-0.908-0.787-1.848
	c-0.891-0.939-1.735-0.062-1.735-0.062s1.178,0.426,1.586,0.818C60.153,31.951,60.684,32.646,60.684,32.646L60.684,32.646z
	 M44.04,39.794c0.069-0.272,0.507-0.733,0.507-0.733s-0.514-0.068-0.596,0.182C43.867,39.492,44.04,39.794,44.04,39.794
	L44.04,39.794z M42.205,44.995c0,0,0.467,0.257,0.921,0.333c0.452,0.076,0.786,0.045,0.786,0.045s-1.043,0.605-1.475,0.271
	C42.008,45.312,42.205,44.995,42.205,44.995L42.205,44.995z M44.702,43.959c0,0-0.212,0.516-0.196,1.167
	c0.016,0.649,0.514,0.894,0.514,0.894S44.689,45.223,44.702,43.959L44.702,43.959z M49.979,49.396c0,0,0.779,0.576,1.619,0.804
	c0.159,0.042,0.308,0.077,0.44,0.104l0.009,0.002l0.008,0.002h0.008l0.007,0.002v0.002h0.008l0.008,0.002h0.007l0.007,0.002
	l0.005,0.002h0.004l0.008,0.002l0.007,0.001l0.007,0.002l0.006,0.002h0.002l0.008,0.001l0.008,0.001l0.006,0.002l0.007,0.001
	l0.005,0.001h0.003l0.008,0.001l0.007,0.002l0.008,0.002l0.006,0.001h0.002l0.006,0.001l0.008,0.001l0.006,0.002l0.008,0.001h0.005
	l0.002,0.002h0.006l0.008,0.002l0.008,0.002h0.006h0.001l0.006,0.002h0.007l0.007,0.002l0.006,0.002h0.005h0.003l0.006,0.002h0.008
	l0.007,0.002l0.006,0.002h0.001l0.006,0.001h0.007l0.006,0.002h0.006l0.005,0.001h0.001l0.009,0.002l0.006,0.001l0.008,0.001
	l0.006,0.001l0,0h0.006l0.006,0.001l0.008,0.002l0.005,0.001h0.006h0.001l0.006,0.002h0.006l0.006,0.001l0.006,0.002h0.001h0.005
	l0.008,0.002h0.006l0.006,0.002h0.004h0.002h0.006c0.328,0.047,0.521,0.047,0.521,0.047s-0.312,0.215-0.774,0.321l-0.01,0.001
	l-0.007,0.002l-0.006,0.002h-0.002l-0.008,0.002l-0.008,0.002l-0.014,0.004h-0.006h-0.005l-0.007,0.002l-0.007,0.002l-0.01,0.002
	h-0.007l-0.004,0.002l-0.004,0.001l-0.01,0.001l-0.007,0.002l-0.009,0.001l-0.01,0.003H52.08l-0.009,0.002l-0.008,0.001
	l-0.008,0.002l-0.009,0.001l0,0l-0.009,0.001l-0.007,0.001l-0.01,0.001l-0.007,0.002l-0.007,0.001H52l-0.008,0.002h-0.008
	l-0.009,0.002l-0.009,0.002h-0.006H51.96h-0.01l-0.009,0.002h-0.01l-0.007,0.002h-0.006h-0.003l-0.008,0.002h-0.009h-0.01
	l-0.008,0.002h-0.005h-0.006h-0.008l-0.008,0.002l-0.009,0.001l-0.009,0.001h-0.004h-0.005l-0.008,0.001h-0.01l-0.009,0.001h-0.01
	h-0.001l-0.007,0.001h-0.01h-0.008h-0.011l-0.008,0.001l0,0h-0.01h-0.008h-0.011h-0.008l-0.008,0.001h-0.002h-0.008h-0.011h-0.008
	c-0.178-0.001-0.365-0.022-0.557-0.079C50.129,50.441,49.979,49.396,49.979,49.396L49.979,49.396z M56.207,52.466
	c0,0,0.258,0.394,0.583,0.544c0.325,0.151-0.099,0.28-0.476,0.055C55.936,52.837,56.207,52.466,56.207,52.466L56.207,52.466z
	 M56.812,51.684c0,0,1.33,0.349,2.252-0.092c0.924-0.439,1.271-0.878,1.271-0.878s-0.786,2.241-1.694,2.211
	C57.734,52.895,56.812,51.684,56.812,51.684L56.812,51.684z"/>
</svg>
