<?xml version="1.0" encoding="utf-8"?>
<!-- Generator: Adobe Illustrator 16.0.0, SVG Export Plug-In . SVG Version: 6.00 Build 0)  -->
<!DOCTYPE svg PUBLIC "-//W3C//DTD SVG 1.0//EN" "http://www.w3.org/TR/2001/REC-SVG-20010904/DTD/svg10.dtd">
<svg version="1.0" id="Layer_1" xmlns="http://www.w3.org/2000/svg" xmlns:xlink="http://www.w3.org/1999/xlink" x="0px" y="0px"
	 width="32px" height="32px" viewBox="0 0 32 32" enable-background="new 0 0 32 32" xml:space="preserve">
<path fill="#FFFFFF" d="M0,0v32h32V0H0z M16,10.028c3.313,0,6,2.68,6,5.986C22,19.32,19.313,22,16,22s-6-2.68-6-5.986
	C10,12.708,12.687,10.028,16,10.028z M29,29H3V12.9h3.468C6.166,13.952,6.1,14.964,6.1,16.014C6.1,21.521,10.486,26,16,26
	s10-4.479,10-9.986c0-1.05-0.166-2.062-0.468-3.014H29V29z M29,9h-6V3h6V9z"/>
</svg>
