<?xml version="1.0" encoding="utf-8"?>
<!-- Generator: Adobe Illustrator 16.0.0, SVG Export Plug-In . SVG Version: 6.00 Build 0)  -->
<!DOCTYPE svg PUBLIC "-//W3C//DTD SVG 1.0//EN" "http://www.w3.org/TR/2001/REC-SVG-20010904/DTD/svg10.dtd">
<svg version="1.0" id="Layer_1" xmlns="http://www.w3.org/2000/svg" xmlns:xlink="http://www.w3.org/1999/xlink" x="0px" y="0px"
	 width="32px" height="32px" viewBox="0 0 32 32" enable-background="new 0 0 32 32" xml:space="preserve">
<path fill="#FFFFFF" d="M0,0v32h32V0H0z M10.035,27.042H5V11.961h5.035V27.042z M7.479,10.15c-1.454,0-2.629-1.178-2.629-2.631
	c0-1.451,1.175-2.629,2.629-2.629c1.45,0,2.629,1.178,2.629,2.629C10.107,8.972,8.929,10.15,7.479,10.15z M28.067,27.068h-5.14
	v-7.125c0-1.772,0.265-3.75-2.168-3.75c-2.47,0-2.747,1.629-2.747,3.621v7.254H12.97V11.998h5.051v2.486h0.064
	c0.634-1.2,1.884-2.567,4.193-2.567c4.802,0,5.789,3.262,5.789,7.376V27.068z"/>
</svg>
