<?xml version="1.0" encoding="utf-8"?>
<!-- Generator: Adobe Illustrator 16.0.0, SVG Export Plug-In . SVG Version: 6.00 Build 0)  -->
<!DOCTYPE svg PUBLIC "-//W3C//DTD SVG 1.0//EN" "http://www.w3.org/TR/2001/REC-SVG-20010904/DTD/svg10.dtd">
<svg version="1.0" id="Layer_1" xmlns="http://www.w3.org/2000/svg" xmlns:xlink="http://www.w3.org/1999/xlink" x="0px" y="0px"
	 width="60px" height="60px" viewBox="0 0 60 60" enable-background="new 0 0 60 60" xml:space="preserve">
<path fill="#FFFFFF" d="M54.049,24v6c1.656,0,2.9-1.344,2.9-3S55.705,24,54.049,24z M18.049,54l6.902,3V39h-9.902L18.049,54z
	 M34.35,17.962V18H15.049c-4.971,0-9,4.029-9,9s4.029,9,9,9H34.35v0.038C40.791,36.413,45.936,41.559,46.312,48h4.538V6h-4.538
	C45.936,12.441,40.791,17.587,34.35,17.962z M26.021,28.283l-9.051,1.293C15.33,29.811,14,28.657,14,27s1.343-3,3-3h9
	c1.104,0,2,0.896,2,2S27.113,28.127,26.021,28.283z"/>
</svg>
