<?xml version="1.0" encoding="utf-8"?>
<!-- Generator: Adobe Illustrator 16.0.0, SVG Export Plug-In . SVG Version: 6.00 Build 0)  -->
<!DOCTYPE svg PUBLIC "-//W3C//DTD SVG 1.0//EN" "http://www.w3.org/TR/2001/REC-SVG-20010904/DTD/svg10.dtd">
<svg version="1.0" id="Layer_1" xmlns="http://www.w3.org/2000/svg" xmlns:xlink="http://www.w3.org/1999/xlink" x="0px" y="0px"
	 width="60px" height="60px" viewBox="0 0 60 60" enable-background="new 0 0 60 60" xml:space="preserve">
<path fill="#FFFFFF" d="M20.343,51.48c2.07,1.029,4.305,1.772,6.657,2.175V60h8v-6.345c2.352-0.402,4.588-1.146,6.657-2.175
	L42.9,31.59l-23.719,1.316L20.343,51.48z M45.699,24H43L41.657,2.52C38.443,0.922,34.834,0,31,0s-7.443,0.922-10.657,2.52L19,24
	h-2.699C16.104,24.97,16,25.972,16,27s0.104,2.03,0.301,3h29.398C45.896,29.03,46,28.028,46,27S45.896,24.97,45.699,24z"/>
</svg>
