<?xml version="1.0" encoding="utf-8"?>
<!-- Generator: Adobe Illustrator 16.0.0, SVG Export Plug-In . SVG Version: 6.00 Build 0)  -->
<!DOCTYPE svg PUBLIC "-//W3C//DTD SVG 1.0//EN" "http://www.w3.org/TR/2001/REC-SVG-20010904/DTD/svg10.dtd">
<svg version="1.0" id="Layer_1" xmlns="http://www.w3.org/2000/svg" xmlns:xlink="http://www.w3.org/1999/xlink" x="0px" y="0px"
	 width="32px" height="32px" viewBox="0 0 32 32" enable-background="new 0 0 32 32" xml:space="preserve">
<path fill="#FFFFFF" d="M0,0v32h32V0H0z M17.748,21.851c-1.198,0-2.432-0.542-3.097-1.315c-0.141,0.889-0.433,2.697-0.557,3.147
	c-0.498,1.81-1.833,3.64-2.384,4.343c-0.101,0.131-0.211,0.186-0.33,0.186c-0.189,0-0.344-0.135-0.368-0.319
	c-0.171-1.165-0.38-3.29,0.043-5.079c0.235-0.994,1.259-6.457,1.381-7.107c-0.1-0.224-0.411-1.014-0.411-2.11
	c0-2.025,1.205-3.611,2.742-3.611c1.2,0,1.977,0.855,1.977,2.179c0,0.798-0.316,1.821-0.65,2.903
	c-0.186,0.601-0.376,1.217-0.519,1.818c-0.137,0.581-0.023,1.14,0.32,1.573c0.361,0.457,0.932,0.719,1.564,0.719
	c2.268,0,3.977-2.926,3.977-6.805c0-2.946-2.073-4.849-5.282-4.849c-4.082,0-6.284,3.148-6.284,6.11
	c0,1.001,0.268,1.804,0.819,2.454c0.272,0.321,0.344,0.499,0.231,0.916l-0.269,1.057c-0.085,0.324-0.326,0.525-0.629,0.525
	c-0.099,0-0.2-0.021-0.302-0.062C7.955,17.799,6.9,15.849,6.9,13.304c0-4.144,3.597-8.43,9.616-8.43
	c5.346,0,8.541,3.939,8.541,7.748C25.058,17.969,21.983,21.851,17.748,21.851z"/>
</svg>
