<?xml version="1.0" encoding="utf-8"?>
<!-- Generator: Adobe Illustrator 16.0.0, SVG Export Plug-In . SVG Version: 6.00 Build 0)  -->
<!DOCTYPE svg PUBLIC "-//W3C//DTD SVG 1.1//EN" "http://www.w3.org/Graphics/SVG/1.1/DTD/svg11.dtd">
<svg version="1.1" id="Layer_1" xmlns="http://www.w3.org/2000/svg" xmlns:xlink="http://www.w3.org/1999/xlink" x="0px" y="0px"
	 width="100px" height="100px" viewBox="0 0 100 100" enable-background="new 0 0 100 100" xml:space="preserve">
<g>
	<path fill="#FFFFFF" d="M52.5,55c0,1.104-0.896,2-2,2h-1c-1.104,0-2-0.896-2-2v-1.41l-13-2.471V64c0,1.104,0.896,2,2,2h27
		c1.104,0,2-0.896,2-2V51.12l-13,2.471V55z"/>
	<polygon fill="#FFFFFF" points="33.5,41 33.5,49 50.002,53 66.5,49 66.5,41 	"/>
	<path fill="#FFFFFF" d="M45.48,39.514C46.777,38.535,48.365,38,50,38c1.641,0,3.234,0.539,4.534,1.524V40h2v-1.413l-0.349-0.299
		C54.465,36.812,52.269,36,50,36c-2.261,0-4.452,0.808-6.169,2.275l-0.351,0.299V40h2V39.514z"/>
</g>
</svg>
