<?xml version="1.0" encoding="utf-8"?>
<!-- Generator: Adobe Illustrator 16.0.0, SVG Export Plug-In . SVG Version: 6.00 Build 0)  -->
<!DOCTYPE svg PUBLIC "-//W3C//DTD SVG 1.1//EN" "http://www.w3.org/Graphics/SVG/1.1/DTD/svg11.dtd">
<svg version="1.1" id="Layer_1" xmlns="http://www.w3.org/2000/svg" xmlns:xlink="http://www.w3.org/1999/xlink" x="0px" y="0px"
	 width="100px" height="100px" viewBox="0 0 100 100" enable-background="new 0 0 100 100" xml:space="preserve">
<g>
	<path fill="#FFFFFF" d="M53.557,42.697c0.229,0.527,0.418,1.265,0.418,2.281c0,1.126-0.377,1.956-0.805,2.557h0.378
		c0,0,3.729-1.868,3.729-4.953c0.002-2.99-0.541-4.592-1.899-5.8C56.006,40.888,54.057,42.386,53.557,42.697z"/>
	<path fill="#FFFFFF" d="M45.33,47.296c0.027-0.302,0.059-0.735,0.059-1.38c0-1.689,0.307-2.595,1.075-3.277
		c-0.407,2.653,1.093,3.378,1.093,3.378s-0.968-1.435-0.188-2.713c1.503-2.462,2.935-2.765,0.546-5.443
		c3.371,1.434,4.085,4.495,3.659,5.831c1.155-0.388,1.144-2.143,1.144-2.143s0.446,0.294,0.807,1.081
		c0.322-0.541,1.449-2.708,0.252-4.67c-2.657-4.358-5.193-4.893-0.965-9.635c-5.963,2.536-7.229,7.955-6.476,10.32
		c-2.045-0.686-2.022-3.792-2.022-3.792s-2.229,1.403-2.229,6.065C42.084,44.66,44.411,46.654,45.33,47.296z"/>
	<polygon fill="#FFFFFF" points="40,49.675 42,53.675 58,53.675 60,49.675 	"/>
	<polygon fill="#FFFFFF" points="48,71.675 52,71.675 55.747,54.815 44.411,55.524 	"/>
</g>
</svg>
