<?xml version="1.0" encoding="utf-8"?>
<!-- Generator: Adobe Illustrator 16.0.0, SVG Export Plug-In . SVG Version: 6.00 Build 0)  -->
<!DOCTYPE svg PUBLIC "-//W3C//DTD SVG 1.0//EN" "http://www.w3.org/TR/2001/REC-SVG-20010904/DTD/svg10.dtd">
<svg version="1.0" id="Layer_1" xmlns="http://www.w3.org/2000/svg" xmlns:xlink="http://www.w3.org/1999/xlink" x="0px" y="0px"
	 width="32px" height="32px" viewBox="0 0 32 32" enable-background="new 0 0 32 32" xml:space="preserve">
<path fill="#FFFFFF" d="M0,0v32h32V0H0z M23.895,12.088c0.049,0.087,0.053,0.261,0.053,0.437c0,5.645-4.34,11.483-11.603,11.483
	c-2.221,0-4.382-0.627-6.251-1.813c-0.039-0.024-0.056-0.073-0.041-0.117c0.014-0.04,0.052-0.066,0.094-0.066h0.011
	c0.313,0.036,0.63,0.056,0.953,0.056c1.725,0,3.358-0.527,4.741-1.527c-1.657-0.141-3.079-1.251-3.591-2.833
	c-0.011-0.034-0.003-0.071,0.02-0.098c0.02-0.021,0.047-0.033,0.075-0.033c0.006,0,0.013,0,0.019,0.001
	c0.242,0.047,0.492,0.07,0.741,0.07c0.21,0,0.418-0.017,0.625-0.049c-1.705-0.529-2.902-2.112-2.902-3.914
	c0-0.035,0.019-0.093,0.049-0.111c0.023-0.014,0.051-0.032,0.077-0.032c0.008,0,0.015,0.001,0.022,0.005
	c0.443,0.244,0.935,0.401,1.438,0.461c-0.979-0.776-1.554-1.949-1.554-3.204c0-0.726,0.194-1.439,0.562-2.062
	c0.016-0.028,0.045-0.046,0.078-0.049c0.002,0,0.005,0,0.008,0c0.03,0,0.058,0.013,0.077,0.037c2.01,2.441,4.967,3.943,8.13,4.137
	c-0.053-0.262-0.079-0.532-0.079-0.804c0-2.262,1.859-4.102,4.143-4.102c1.142,0,2.243,0.472,3.024,1.295
	c0.805-0.205,1.658-0.527,2.443-0.988c0.016-0.009,0.033-0.014,0.051-0.014c0.022,0,0.044,0.007,0.062,0.022
	c0.032,0.026,0.046,0.069,0.032,0.109c-0.26,0.807-0.768,1.511-1.449,2.02c0.642-0.111,1.266-0.298,1.859-0.559
	c0.013-0.005,0.026-0.008,0.04-0.008c0.029,0,0.058,0.013,0.077,0.036c0.028,0.034,0.03,0.083,0.006,0.12
	C25.384,10.809,24.697,11.514,23.895,12.088z"/>
</svg>
