<?xml version="1.0" encoding="utf-8"?>
<!-- Generator: Adobe Illustrator 16.0.0, SVG Export Plug-In . SVG Version: 6.00 Build 0)  -->
<!DOCTYPE svg PUBLIC "-//W3C//DTD SVG 1.0//EN" "http://www.w3.org/TR/2001/REC-SVG-20010904/DTD/svg10.dtd">
<svg version="1.0" id="Layer_1" xmlns="http://www.w3.org/2000/svg" xmlns:xlink="http://www.w3.org/1999/xlink" x="0px" y="0px"
	 width="32px" height="32px" viewBox="0 0 32 32" enable-background="new 0 0 32 32" xml:space="preserve">
<path fill="#FFFFFF" d="M0,0v32h32V0H0z M24.634,18.861c1.108,1.053,1.806,2.012,2.125,2.705c0.245,0.424,0.29,0.748,0.153,1.006
	c-0.246,0.463-0.986,0.516-1.019,0.518l-2.83,0.041c-0.003,0.002-0.065,0.012-0.169,0.012c-0.247,0-0.752-0.062-1.353-0.484
	c-0.444-0.311-0.869-0.81-1.279-1.292c-0.536-0.628-1.041-1.321-1.447-1.321c-0.041,0-0.08,0.006-0.117,0.018
	c-0.613,0.2-0.73,1.589-0.724,2.068c0.001,0.018,0.005,0.426-0.205,0.658c-0.225,0.248-0.645,0.298-0.663,0.301l-1.433,0.002
	c-0.499,0-3.104-0.123-5.402-2.57c-2.758-2.936-5.225-8.568-5.249-8.623c-0.02-0.051-0.16-0.452,0.024-0.676
	c0.196-0.238,0.665-0.258,0.718-0.259L8.9,10.941C8.932,10.945,9.24,11,9.47,11.171c0.191,0.145,0.299,0.406,0.304,0.419
	c0.001,0,0.506,0.872,1.172,2.049c1.316,2.328,2.079,2.679,2.346,2.679c0.067,0,0.128-0.015,0.181-0.045
	c0.49-0.272,0.5-2.49,0.502-3.283c-0.001-0.002,0.01-1.025-0.307-1.469c-0.16-0.222-0.553-0.385-1.105-0.459
	c-0.043-0.006-0.13-0.086-0.137-0.129c-0.033-0.201,0.298-0.542,0.594-0.69c0.497-0.249,1.279-0.3,2.301-0.3l0.482,0.003
	c0.789,0.008,1.055,0.053,1.306,0.122l0.146,0.038c0.91,0.225,0.882,0.946,0.824,2.383c-0.017,0.424-0.036,1.016-0.036,1.584
	c0,0.128-0.003,0.265-0.007,0.406c-0.019,0.706-0.14,1.505,0.282,1.784c0.029,0.02,0.062,0.028,0.099,0.028
	c0.229,0,0.804-0.328,2.067-2.522c0.695-1.208,1.216-2.293,1.216-2.293c0.003-0.006,0.127-0.277,0.326-0.401
	c0.131-0.079,0.284-0.096,0.39-0.096c0.004,0,0.1,0.005,0.104,0.006l3.283-0.022c0,0,0.121-0.015,0.283-0.015
	c0.373,0,0.843,0.073,0.964,0.417c0.176,0.502-0.281,1.224-1.502,2.883l-0.23,0.314c-0.282,0.385-0.532,0.716-0.751,1.005
	C23.146,17.449,23.146,17.449,24.634,18.861z"/>
</svg>
